<svg width="31" height="28" viewBox="0 0 31 28" fill="none" xmlns="http://www.w3.org/2000/svg">
<path id="car" d="M26.8312 2.1875C26.4937 1.175 25.4813 0.5 24.4688 0.5H5.90625C4.725 0.5 3.88125 1.175 3.54375 2.1875L0 12.3125V25.8125C0 26.6562 0.84375 27.5 1.6875 27.5H3.375C4.3875 27.5 5.0625 26.6562 5.0625 25.8125V24.125H25.3125V25.8125C25.3125 26.6562 26.1562 27.5 27 27.5H28.6875C29.5312 27.5 30.375 26.6562 30.375 25.8125V12.3125L26.8312 2.1875ZM6.4125 3.875H23.7938L25.65 8.9375H4.725L6.4125 3.875ZM27 20.75H3.375V12.3125H27V20.75ZM7.59375 14C8.94375 14 10.125 15.1812 10.125 16.5312C10.125 17.8813 8.94375 19.0625 7.59375 19.0625C6.24375 19.0625 5.0625 17.8813 5.0625 16.5312C5.0625 15.1812 6.24375 14 7.59375 14ZM22.7812 14C24.1313 14 25.3125 15.1812 25.3125 16.5312C25.3125 17.8813 24.1313 19.0625 22.7812 19.0625C21.4312 19.0625 20.25 17.8813 20.25 16.5312C20.25 15.1812 21.4312 14 22.7812 14Z" fill="white"/>
</svg>
