<svg width="19" height="31" viewBox="0 0 19 31" fill="none" xmlns="http://www.w3.org/2000/svg">
<g id="Group">
<path id="Vector" d="M15 2.375C15.4973 2.375 15.9742 2.57254 16.3258 2.92417C16.6775 3.27581 16.875 3.75272 16.875 4.25V26.75C16.875 27.2473 16.6775 27.7242 16.3258 28.0758C15.9742 28.4275 15.4973 28.625 15 28.625H3.75C3.25272 28.625 2.77581 28.4275 2.42418 28.0758C2.07254 27.7242 1.875 27.2473 1.875 26.75V4.25C1.875 3.75272 2.07254 3.27581 2.42418 2.92417C2.77581 2.57254 3.25272 2.375 3.75 2.375H15ZM3.75 0.5C2.75544 0.5 1.80161 0.895088 1.09835 1.59835C0.395088 2.30161 0 3.25544 0 4.25V26.75C0 27.7446 0.395088 28.6984 1.09835 29.4016C1.80161 30.1049 2.75544 30.5 3.75 30.5H15C15.9946 30.5 16.9484 30.1049 17.6516 29.4016C18.3549 28.6984 18.75 27.7446 18.75 26.75V4.25C18.75 3.25544 18.3549 2.30161 17.6516 1.59835C16.9484 0.895088 15.9946 0.5 15 0.5L3.75 0.5Z" fill="white"/>
<path id="Vector_2" d="M9.375 26.75C9.87228 26.75 10.3492 26.5525 10.7008 26.2008C11.0525 25.8492 11.25 25.3723 11.25 24.875C11.25 24.3777 11.0525 23.9008 10.7008 23.5492C10.3492 23.1975 9.87228 23 9.375 23C8.87772 23 8.40081 23.1975 8.04918 23.5492C7.69754 23.9008 7.5 24.3777 7.5 24.875C7.5 25.3723 7.69754 25.8492 8.04918 26.2008C8.40081 26.5525 8.87772 26.75 9.375 26.75Z" fill="white"/>
</g>
</svg>
