<svg width="29" height="31" viewBox="0 0 29 31" fill="none" xmlns="http://www.w3.org/2000/svg">
<g id="Group">
<path id="Vector" d="M3.04129 27.3746C4.70692 29.3803 7.80501 29.3803 14.0026 29.3803H15.0047C21.2023 29.3803 24.3017 29.3803 25.9674 27.3746M3.04129 27.3746C1.37565 25.3675 1.94752 22.3222 3.08987 16.2287C3.90187 11.8981 4.30717 9.73134 5.84927 8.45158M25.9674 27.3746C27.633 25.3675 27.0611 22.3222 25.9188 16.2287C25.1068 11.8981 24.7001 9.73134 23.158 8.45158M23.158 8.45158C21.6173 7.17181 19.4117 7.17181 15.0047 7.17181H14.0026C9.59557 7.17181 7.39137 7.17181 5.84927 8.45158" stroke="#121422" stroke-width="3"/>
<path id="Vector_2" d="M10.3395 7.17181V5.78378C10.3395 4.67939 10.7782 3.62024 11.5591 2.83932C12.34 2.05841 13.3992 1.61969 14.5036 1.61969C15.608 1.61969 16.6671 2.05841 17.448 2.83932C18.2289 3.62024 18.6677 4.67939 18.6677 5.78378V7.17181" stroke="#121422" stroke-width="3" stroke-linecap="round"/>
</g>
</svg>
