<svg width="54" height="54" viewBox="0 0 54 54" fill="none" xmlns="http://www.w3.org/2000/svg">
<g id="ic:round-alarm">
<path id="Vector" d="M35.592 33.9493L28.1607 29.539V19.5498C28.1607 18.6677 27.455 17.9621 26.573 17.9621H26.4407C25.5586 17.9621 24.853 18.6677 24.853 19.5498V29.958C24.853 30.7298 25.2499 31.4575 25.9335 31.8544L33.9822 36.6837C34.732 37.1247 35.7022 36.9042 36.1432 36.1544C36.6063 35.3826 36.3637 34.3903 35.592 33.9493ZM47.3012 11.3687L40.5094 5.72361C39.5832 4.95181 38.194 5.06207 37.4002 6.01027C36.6284 6.93643 36.7607 8.32566 37.6868 9.11951L44.4566 14.7647C45.3827 15.5364 46.772 15.4262 47.5658 14.478C47.7528 14.2565 47.8942 14.0004 47.9821 13.7242C48.07 13.4481 48.1026 13.1573 48.078 12.8685C48.0534 12.5797 47.9722 12.2986 47.8389 12.0413C47.7056 11.784 47.5229 11.5554 47.3012 11.3687ZM9.63755 14.7647L16.4073 9.11951C17.3555 8.32566 17.4878 6.93643 16.694 6.01027C16.5112 5.78719 16.2859 5.60263 16.0312 5.46729C15.7765 5.33195 15.4975 5.24852 15.2103 5.22186C14.9231 5.19519 14.6335 5.22581 14.3582 5.31194C14.083 5.39807 13.8275 5.538 13.6068 5.72361L6.81498 11.3687C6.59329 11.5554 6.41058 11.784 6.27728 12.0413C6.14399 12.2986 6.06273 12.5797 6.03816 12.8685C6.01358 13.1573 6.04617 13.4481 6.13406 13.7242C6.22194 14.0004 6.36341 14.2565 6.55036 14.478C7.32216 15.4262 8.71139 15.5364 9.63755 14.7647ZM27.0581 9.14156C21.7943 9.14185 16.7461 11.2332 13.0243 14.9555C9.30238 18.6778 7.21161 23.7261 7.2119 28.99C7.21219 34.2538 9.30352 39.3019 13.0258 43.0238C16.7481 46.7457 21.7965 48.8364 27.0603 48.8361C29.6667 48.836 32.2475 48.3225 34.6554 47.3249C37.0634 46.3274 39.2512 44.8653 41.0941 43.0222C42.937 41.1791 44.3988 38.9911 45.3961 36.5831C46.3934 34.175 46.9066 31.5941 46.9065 28.9878C46.9063 26.3814 46.3928 23.8005 45.3953 21.3926C44.3977 18.9847 42.9357 16.7968 41.0926 14.9539C39.2495 13.111 37.0614 11.6492 34.6534 10.6519C32.2454 9.65464 29.6645 9.14142 27.0581 9.14156ZM27.0581 44.4237C18.5463 44.4237 11.6222 37.4996 11.6222 28.9878C11.6222 20.4759 18.5463 13.5518 27.0581 13.5518C35.5699 13.5518 42.494 20.4759 42.494 28.9878C42.494 37.4996 35.5699 44.4237 27.0581 44.4237Z" fill="white"/>
</g>
</svg>
