<svg width="50" height="50" viewBox="0 0 50 50" fill="none" xmlns="http://www.w3.org/2000/svg">
<g id="logos:google-home" clip-path="url(#clip0_0_8)">
<path id="Vector" d="M38.4078 39.1764C38.4125 40.9507 39.0342 42.7651 39.0334 44.5394C39.0329 46.3404 38.4097 48.1013 38.4151 49.9024C29.4699 49.9011 20.524 49.9024 11.5787 49.9017C11.5831 48.1311 10.7451 46.3098 10.7444 44.5394C10.7438 42.7347 11.5802 40.9811 11.584 39.1764C20.5255 39.1792 29.4663 39.1771 38.4078 39.1764Z" fill="#3BAB59"/>
<path id="Vector_2" d="M28.0573 9.59249C29.2999 8.3523 31.2837 7.6991 32.512 6.44495C37.6016 11.5659 42.7128 16.6668 47.8144 21.7772C48.2741 22.2504 48.8344 22.6859 49.0139 23.3536C49.1892 23.7882 49.1356 24.2616 49.1435 24.7183C49.1443 32.2008 49.1428 39.6825 49.1446 47.1642C49.2577 48.6406 47.8501 50.0197 46.3801 49.9023C43.725 49.9023 41.0705 49.9031 38.4152 49.9023C38.4045 46.327 38.4171 42.7517 38.408 39.1765C38.4144 35.2457 38.4109 31.3157 38.4095 27.3859C35.0958 24.0772 31.7892 20.7614 28.4775 17.4512C27.3224 16.2859 26.1492 15.1376 25.0046 13.9625C25.6322 13.3617 27.408 10.2402 28.0575 9.5923L28.0573 9.59249Z" fill="#4586F7"/>
<path id="Vector_3" d="M11.5754 27.4C11.5903 31.3251 11.5739 35.251 11.5839 39.1764C11.5767 42.7517 11.5875 46.3264 11.579 49.9017C8.78502 49.9004 5.99106 49.9025 3.1971 49.9004C2.03031 49.7538 1.00276 48.7715 0.854268 47.5953C0.844834 44.4406 0.851438 41.2855 0.852192 38.1312C2.71389 36.2868 3.8754 33.8915 5.73068 32.0406C7.44936 30.3146 9.86465 29.1338 11.5754 27.4Z" fill="#FDC00D"/>
<path id="Vector_4" d="M24.8578 0.00494183C25.0887 0.0336211 25.3634 -0.0573223 25.5685 0.0721116C26.1261 0.180791 26.6149 0.503244 27.007 0.905697C28.6727 2.57513 30.3398 4.24305 32.0072 5.91098C32.1744 6.08966 32.3694 6.24343 32.5117 6.44494C30.6415 8.35438 28.7362 10.2291 26.8525 12.1251C26.2347 12.7357 25.6319 13.3619 25.0044 13.9625C24.1764 14.7425 23.393 15.5681 22.5821 16.3661C18.9145 20.0457 15.2342 23.7119 11.5751 27.4C9.86436 29.134 8.13285 30.8483 6.41398 32.5742C4.55888 34.4251 2.7136 36.2868 0.851902 38.1312C0.845487 34.087 0.851902 30.0425 0.850581 25.9989C0.854921 25.2355 0.838317 24.4719 0.864732 23.7091C0.857185 23.5544 0.973411 23.4323 0.966241 23.278C1.07435 23.0965 1.17077 22.9076 1.27586 22.7246C1.54039 22.3729 1.86926 22.0783 2.17605 21.7646C9.11586 14.8104 16.0578 7.85777 22.9996 0.904942C23.2836 0.606829 23.6087 0.335885 24.0042 0.200791C24.2815 0.107961 24.5561 -0.0271336 24.8578 0.00494183Z" fill="#EC5043"/>
</g>
<defs>
<clipPath id="clip0_0_8">
<rect width="48.3019" height="50" fill="white" transform="translate(0.849121)"/>
</clipPath>
</defs>
</svg>
