<svg width="51" height="50" viewBox="0 0 51 50" fill="none" xmlns="http://www.w3.org/2000/svg">
<g id="material-symbols:call-outline">
<path id="Vector" d="M42.3561 42.9135C38.0327 42.9135 33.761 41.9899 29.5413 40.1426C25.3216 38.2954 21.4823 35.6783 18.0235 32.2915C14.5648 28.9033 11.8932 25.1424 10.0088 21.0088C8.12449 16.8752 7.18162 12.6907 7.18024 8.45549C7.18024 7.84561 7.38776 7.33738 7.80282 6.9308C8.21787 6.52421 8.73669 6.32092 9.35928 6.32092H17.7641C18.2484 6.32092 18.6807 6.4822 19.0612 6.80476C19.4417 7.12731 19.6665 7.50815 19.7356 7.94726L21.0846 15.0625C21.1538 15.6046 21.1365 16.062 21.0327 16.4347C20.9289 16.8074 20.7387 17.1293 20.462 17.4003L15.4295 22.381C16.1212 23.6346 16.9423 24.8456 17.8928 26.0138C18.8433 27.1821 19.8899 28.309 21.0327 29.3946C22.1049 30.4449 23.229 31.4194 24.405 32.3179C25.581 33.2165 26.8262 34.0378 28.1405 34.7818L33.0174 30.0045C33.3287 29.6995 33.7354 29.4705 34.2377 29.3173C34.7399 29.1642 35.2324 29.1222 35.7153 29.1913L42.875 30.6143C43.3592 30.7499 43.757 30.9958 44.0682 31.3523C44.3795 31.7087 44.5352 32.1065 44.5352 32.5456V40.7789C44.5352 41.3888 44.3277 41.8971 43.9126 42.3036C43.4975 42.7102 42.9787 42.9135 42.3561 42.9135ZM13.4579 18.5185L16.8821 15.1641L16.0002 10.3868H11.3827C11.5556 11.7759 11.7977 13.1482 12.109 14.5034C12.4203 15.8587 12.8699 17.1971 13.4579 18.5185ZM32.0316 36.7131C33.3806 37.2891 34.7558 37.7465 36.1573 38.0853C37.5588 38.4241 38.9679 38.6444 40.3846 38.746V34.2736L35.5077 33.308L32.0316 36.7131Z" fill="white"/>
</g>
</svg>
