<svg width="65" height="65" viewBox="0 0 65 65" fill="none" xmlns="http://www.w3.org/2000/svg">
<g id="tabler:music">
<g id="Group">
<path id="Vector" d="M8.70032 46.0259C8.70032 48.1498 9.54403 50.1867 11.0458 51.6885C12.5477 53.1903 14.5845 54.034 16.7084 54.034C18.8323 54.034 20.8692 53.1903 22.371 51.6885C23.8728 50.1867 24.7165 48.1498 24.7165 46.0259C24.7165 43.9021 23.8728 41.8652 22.371 40.3633C20.8692 38.8615 18.8323 38.0178 16.7084 38.0178C14.5845 38.0178 12.5477 38.8615 11.0458 40.3633C9.54403 41.8652 8.70032 43.9021 8.70032 46.0259ZM35.394 46.0259C35.394 48.1498 36.2377 50.1867 37.7395 51.6885C39.2414 53.1903 41.2782 54.034 43.4021 54.034C45.526 54.034 47.5629 53.1903 49.0647 51.6885C50.5665 50.1867 51.4102 48.1498 51.4102 46.0259C51.4102 43.9021 50.5665 41.8652 49.0647 40.3633C47.5629 38.8615 45.526 38.0178 43.4021 38.0178C41.2782 38.0178 39.2414 38.8615 37.7395 40.3633C36.2377 41.8652 35.394 43.9021 35.394 46.0259Z" stroke="white" stroke-width="5" stroke-linecap="round" stroke-linejoin="round"/>
<path id="Vector_2" d="M24.7166 46.0259V11.3241H51.4103V46.0259M24.7166 22.0016H51.4103" stroke="white" stroke-width="5" stroke-linecap="round" stroke-linejoin="round"/>
</g>
</g>
</svg>
