<svg width="20" height="31" viewBox="0 0 20 31" fill="none" xmlns="http://www.w3.org/2000/svg">
<path id="Vector" d="M2.25 7.1015V3.5C2.25 2.70435 2.56607 1.94129 3.12868 1.37868C3.69129 0.81607 4.45435 0.5 5.25 0.5H12.75C13.5456 0.5 14.3087 0.81607 14.8713 1.37868C15.4339 1.94129 15.75 2.70435 15.75 3.5V7.1015C16.4344 7.49646 17.0027 8.06472 17.3977 8.7491C17.7926 9.43348 18.0004 10.2098 18 11V12.5C18.3978 12.5 18.7794 12.658 19.0607 12.9393C19.342 13.2206 19.5 13.6022 19.5 14V15.5C19.5 15.8978 19.342 16.2794 19.0607 16.5607C18.7794 16.842 18.3978 17 18 17V20C18.0002 20.7901 17.7924 21.5664 17.3975 22.2508C17.0025 22.9351 16.4343 23.5034 15.75 23.8985V27.5C15.75 28.2956 15.4339 29.0587 14.8713 29.6213C14.3087 30.1839 13.5456 30.5 12.75 30.5H5.25C4.45435 30.5 3.69129 30.1839 3.12868 29.6213C2.56607 29.0587 2.25 28.2956 2.25 27.5V23.8985C1.56561 23.5035 0.997324 22.9353 0.602339 22.2509C0.207354 21.5665 -0.000394918 20.7902 5.6359e-07 20V11C-0.000242725 10.2099 0.20757 9.43357 0.60254 8.74921C0.997509 8.06486 1.56571 7.49657 2.25 7.1015ZM5.25 2.75C5.05109 2.75 4.86032 2.82902 4.71967 2.96967C4.57902 3.11032 4.5 3.30109 4.5 3.5V6.5H13.5V3.5C13.5 3.30109 13.421 3.11032 13.2803 2.96967C13.1397 2.82902 12.9489 2.75 12.75 2.75H5.25ZM15.75 20V11C15.75 10.4033 15.5129 9.83097 15.091 9.40901C14.669 8.98705 14.0967 8.75 13.5 8.75H4.5C3.90326 8.75 3.33097 8.98705 2.90901 9.40901C2.48705 9.83097 2.25 10.4033 2.25 11V20C2.25 20.5967 2.48705 21.169 2.90901 21.591C3.33097 22.0129 3.90326 22.25 4.5 22.25H13.5C14.0967 22.25 14.669 22.0129 15.091 21.591C15.5129 21.169 15.75 20.5967 15.75 20ZM4.5 27.5C4.5 27.6989 4.57902 27.8897 4.71967 28.0303C4.86032 28.171 5.05109 28.25 5.25 28.25H12.75C12.9489 28.25 13.1397 28.171 13.2803 28.0303C13.421 27.8897 13.5 27.6989 13.5 27.5V24.5H4.5V27.5Z" fill="white"/>
</svg>
